{
.appVersion = "983";
copyright = "Copyright © 2014, 2015 Adobe Systems Incorporated (http://www.adobe.com/).";
customParameters = (
{
name = description;
value = "Dr. Ken Lunde (project architect, glyph set definition & overall production); Masataka HATTORI 服部正貴 (production & ideograph elements)";
},
{
name = license;
value = "This Font Software is licensed under the SIL Open Font License, Version 1.1. This Font Software is distributed on an \"AS IS\" BASIS, WITHOUT WARRANTIES OR CONDITIONS OF ANY KIND, either express or implied. See the SIL Open Font License for the specific language, permissions and limitations governing your use of this Font Software.";
},
{
name = licenseURL;
value = "http://scripts.sil.org/OFL";
},
{
name = vendorID;
value = GOOG;
},
{
name = panose;
value = (
2,
11,
5,
0,
0,
0,
0,
0,
0,
0
);
},
{
name = unicodeRanges;
value = (
0,
1,
28,
29,
36,
42,
43,
44,
45,
48,
49,
50,
51,
52,
54,
55,
56,
57,
59,
61,
65,
66,
68
);
},
{
name = codePageRanges;
value = (
1252,
1250,
1251,
1258,
932,
936,
949,
1361
);
},
{
name = ROS;
value = "Adobe, Identity, 0";
},
{
name = glyphOrder;
value = (
.notdef,
space
);
}
);
date = "2015-06-15 05:06:56 +0000";
designer = "Ryoko NISHIZUKA 西塚涼子 (kana & ideographs); Paul D. Hunt (Latin, Greek & Cyrillic); Wenlong ZHANG 张文龙 (bopomofo); Sandoll Communication 산돌커뮤니케이션, Soo-young JANG 장수영 & Joo-yeon KANG 강주연 (hangul elements, letters & syllables)";
designerURL = "http://www.adobe.com/type/";
familyName = "Yaku Han JP s";
fontMaster = (
{
alignmentZones = (
"{1900, 0}",
"{1100, 0}",
"{1100, 0}",
"{1100, 0}",
"{1100, 0}",
"{1100, 0}",
"{1100, 0}",
"{1100, 0}",
"{1100, 0}",
"{1100, 0}",
"{1100, 0}",
"{1100, 0}",
"{735, 12}",
"{735, 12}",
"{735, 12}",
"{733, 14}",
"{733, 14}",
"{732, 0}",
"{714, 13}",
"{714, 13}",
"{544, 13}",
"{544, 13}",
"{543, 14}",
"{542, 0}",
"{0, 0}",
"{0, -12}",
"{0, -13}",
"{0, -13}",
"{0, -13}",
"{0, -14}",
"{0, -14}",
"{-211, -12}",
"{-229, -21}",
"{-229, -21}",
"{-250, 0}",
"{-250, 0}",

glyphs = (
{
glyphname = .notdef;
lastChange = "2017-04-15 13:06:14 +0000";
layers = (
{
layerId = "89F69A78-1DC7-4EE2-AA22-FFB772252EBC";
paths = (
{
closed = 1;
nodes = (
"100 -120 LINE",
"900 -120 LINE",
"900 880 LINE",
"100 880 LINE"
);
},
{
closed = 1;
nodes = (
"500 421 LINE",
"182 830 LINE",
"818 830 LINE"
);
},
{
closed = 1;
nodes = (
"532 380 LINE",
"850 789 LINE",
"850 -29 LINE"
);
},
{
closed = 1;
nodes = (
"182 -70 LINE",
"500 339 LINE",
"818 -70 LINE"
);
},
{
closed = 1;
nodes = (
"150 789 LINE",
"468 380 LINE",
"150 -29 LINE"
);
}
);
width = 1000;
}
);
note = .notdef;
},
{
glyphname = ellipsis;
lastChange = "2017-04-15 13:06:14 +0000";
layers = (
{
layerId = "89F69A78-1DC7-4EE2-AA22-FFB772252EBC";
paths = (
{
closed = 1;
nodes = (
"101 343 OFFCURVE",
"130 314 OFFCURVE",
"167 314 CURVE SMOOTH",
"204 314 OFFCURVE",
"233 343 OFFCURVE",
"233 380 CURVE SMOOTH",
"233 417 OFFCURVE",
"204 446 OFFCURVE",
"167 446 CURVE SMOOTH",
"130 446 OFFCURVE",
"101 417 OFFCURVE",
"101 380 CURVE SMOOTH"
);
},
{
closed = 1;
nodes = (
"434 343 OFFCURVE",
"463 314 OFFCURVE",
"500 314 CURVE SMOOTH",
"537 314 OFFCURVE",
"566 343 OFFCURVE",
"566 380 CURVE SMOOTH",
"566 417 OFFCURVE",
"537 446 OFFCURVE",
"500 446 CURVE SMOOTH",
"463 446 OFFCURVE",
"434 417 OFFCURVE",
"434 380 CURVE SMOOTH"
);
},
{
closed = 1;
nodes = (
"767 343 OFFCURVE",
"796 314 OFFCURVE",
"833 314 CURVE SMOOTH",
"870 314 OFFCURVE",
"899 343 OFFCURVE",
"899 380 CURVE SMOOTH",
"899 417 OFFCURVE",
"870 446 OFFCURVE",
"833 446 CURVE SMOOTH",
"796 446 OFFCURVE",
"767 417 OFFCURVE",
"767 380 CURVE SMOOTH"
);
}
);
width = 1000;
}
);
note = cid00728;
unicode = 2026;
},
{
glyphname = anglebracketleft;
lastChange = "2017-04-16 02:34:18 +0000";
layers = (
{
layerId = "89F69A78-1DC7-4EE2-AA22-FFB772252EBC";
paths = (
{
closed = 1;
nodes = (
"280 380 LINE",
"560 817 LINE",
"497 846 LINE",
"200 380 LINE",
"497 -86 LINE",
"560 -57 LINE"
);
}
);
vertWidth = 1000;
width = 590;
}
);
note = cid01397;
unicode = 3008;
},
{
glyphname = anglebracketright;
lastChange = "2017-04-16 02:34:30 +0000";
layers = (
{
layerId = "89F69A78-1DC7-4EE2-AA22-FFB772252EBC";
paths = (
{
closed = 1;
nodes = (
"93 -86 LINE",
"390 380 LINE",
"93 846 LINE",
"30 817 LINE",
"310 380 LINE",
"30 -57 LINE"
);
}
);
vertWidth = 1000;
width = 590;
}
);
note = cid01398;
unicode = 3009;
},
{
glyphname = blacklenticularbracketleft;
lastChange = "2017-04-16 02:34:18 +0000";
layers = (
{
layerId = "89F69A78-1DC7-4EE2-AA22-FFB772252EBC";
paths = (
{
closed = 1;
nodes = (
"200 846 LINE",
"200 -86 LINE",
"500 -86 LINE",
"500 -81 LINE",
"391 11 OFFCURVE",
"302 177 OFFCURVE",
"302 380 CURVE SMOOTH",
"302 583 OFFCURVE",
"391 749 OFFCURVE",
"500 841 CURVE",
"500 846 LINE"
);
}
);
vertWidth = 1000;
width = 530;
}
);
note = cid01405;
unicode = 3010;
},
{
glyphname = blacklenticularbracketright;
lastChange = "2017-04-16 02:34:30 +0000";
layers = (
{
layerId = "89F69A78-1DC7-4EE2-AA22-FFB772252EBC";
paths = (
{
closed = 1;
nodes = (
"330 846 LINE",
"30 846 LINE",
"30 841 LINE",
"139 749 OFFCURVE",
"228 583 OFFCURVE",
"228 380 CURVE SMOOTH",
"228 177 OFFCURVE",
"139 11 OFFCURVE",
"30 -81 CURVE",
"30 -86 LINE",
"330 -86 LINE"
);
}
);
vertWidth = 1000;
width = 530;
}
);
note = cid01406;
unicode = 3011;
},
{
glyphname = braceleft.full;
lastChange = "2017-04-16 02:34:18 +0000";
layers = (
{
layerId = "89F69A78-1DC7-4EE2-AA22-FFB772252EBC";
paths = (
{
closed = 1;
nodes = (
"462 -95 LINE",
"462 -43 LINE",
"430 -43 LINE SMOOTH",
"370 -43 OFFCURVE",
"355 -14 OFFCURVE",
"355 58 CURVE SMOOTH",
"355 125 OFFCURVE",
"360 183 OFFCURVE",
"360 258 CURVE SMOOTH",
"360 329 OFFCURVE",
"343 365 OFFCURVE",
"294 378 CURVE",
"294 382 LINE",
"343 395 OFFCURVE",
"360 431 OFFCURVE",
"360 502 CURVE SMOOTH",
"360 578 OFFCURVE",
"355 635 OFFCURVE",
"355 703 CURVE SMOOTH",
"355 775 OFFCURVE",
"370 804 OFFCURVE",
"430 804 CURVE SMOOTH",
"462 804 LINE",
"462 855 LINE",
"414 855 LINE SMOOTH",
"327 855 OFFCURVE",
"285 822 OFFCURVE",
"285 707 CURVE SMOOTH",
"285 628 OFFCURVE",
"295 569 OFFCURVE",
"295 494 CURVE SMOOTH",
"295 452 OFFCURVE",
"275 409 OFFCURVE",
"200 408 CURVE",
"200 352 LINE",
"275 352 OFFCURVE",
"295 309 OFFCURVE",
"295 267 CURVE SMOOTH",
"295 192 OFFCURVE",
"285 133 OFFCURVE",
"285 53 CURVE SMOOTH",
"285 -61 OFFCURVE",
"327 -95 OFFCURVE",
"414 -95 CURVE SMOOTH"
);
}
);
vertWidth = 1000;
width = 492;
}
);
note = cid59082;
unicode = FF5B;
},
{
glyphname = braceright.full;
lastChange = "2017-04-16 02:34:30 +0000";
layers = (
{
layerId = "89F69A78-1DC7-4EE2-AA22-FFB772252EBC";
paths = (
{
closed = 1;
nodes = (
"78 -95 LINE SMOOTH",
"165 -95 OFFCURVE",
"207 -61 OFFCURVE",
"207 53 CURVE SMOOTH",
"207 133 OFFCURVE",
"197 192 OFFCURVE",
"197 267 CURVE SMOOTH",
"197 309 OFFCURVE",
"217 352 OFFCURVE",
"292 352 CURVE",
"292 408 LINE",
"217 409 OFFCURVE",
"197 452 OFFCURVE",
"197 494 CURVE SMOOTH",
"197 569 OFFCURVE",
"207 628 OFFCURVE",
"207 707 CURVE SMOOTH",
"207 822 OFFCURVE",
"165 855 OFFCURVE",
"78 855 CURVE SMOOTH",
"30 855 LINE",
"30 804 LINE",
"62 804 LINE SMOOTH",
"122 804 OFFCURVE",
"138 775 OFFCURVE",
"138 703 CURVE SMOOTH",
"138 635 OFFCURVE",
"132 578 OFFCURVE",
"132 502 CURVE SMOOTH",
"132 431 OFFCURVE",
"149 395 OFFCURVE",
"198 382 CURVE",
"198 378 LINE",
"149 365 OFFCURVE",
"132 329 OFFCURVE",
"132 258 CURVE SMOOTH",
"132 183 OFFCURVE",
"138 125 OFFCURVE",
"138 58 CURVE SMOOTH",
"138 -14 OFFCURVE",
"122 -43 OFFCURVE",
"62 -43 CURVE SMOOTH",
"30 -43 LINE",
"30 -95 LINE"
);
}
);
vertWidth = 1000;
width = 492;
}
);
note = cid59084;
unicode = FF5D;
},
{
glyphname = cornerbracketleft;
lastChange = "2017-04-16 02:34:18 +0000";
layers = (
{
layerId = "89F69A78-1DC7-4EE2-AA22-FFB772252EBC";
paths = (
{
closed = 1;
nodes = (
"200 199 LINE",
"274 199 LINE",
"274 777 LINE",
"516 777 LINE",
"516 846 LINE",
"200 846 LINE"
);
}
);
vertWidth = 1000;
width = 546;
}
);
note = cid01401;
unicode = 300C;
},
{
glyphname = cornerbracketright;
lastChange = "2017-04-16 02:34:30 +0000";
layers = (
{
layerId = "89F69A78-1DC7-4EE2-AA22-FFB772252EBC";
paths = (
{
closed = 1;
nodes = (
"346 561 LINE",
"272 561 LINE",
"272 -17 LINE",
"30 -17 LINE",
"30 -86 LINE",
"346 -86 LINE"
);
}
);
vertWidth = 1000;
width = 546;
}
);
note = cid01402;
unicode = 300D;
},
{
glyphname = dblanglebracketleft;
lastChange = "2017-04-16 02:34:18 +0000";
layers = (
{
layerId = "89F69A78-1DC7-4EE2-AA22-FFB772252EBC";
paths = (
{
closed = 1;
nodes = (
"261 380 LINE",
"476 828 LINE",
"422 846 LINE",
"200 380 LINE",
"422 -86 LINE",
"476 -68 LINE"
);
},
{
closed = 1;
nodes = (
"419 380 LINE",
"634 828 LINE",
"580 846 LINE",
"358 380 LINE",
"580 -86 LINE",
"634 -68 LINE"
);
}
);
vertWidth = 1000;
width = 664;
}
);
note = cid01399;
unicode = 300A;
},
{
glyphname = dblanglebracketright;
lastChange = "2017-04-16 02:34:30 +0000";
layers = (
{
layerId = "89F69A78-1DC7-4EE2-AA22-FFB772252EBC";
paths = (
{
closed = 1;
nodes = (
"242 -86 LINE",
"464 380 LINE",
"242 846 LINE",
"188 828 LINE",
"403 380 LINE",
"188 -68 LINE"
);
},
{
closed = 1;
nodes = (
"84 -86 LINE",
"306 380 LINE",
"84 846 LINE",
"30 828 LINE",
"245 380 LINE",
"30 -68 LINE"
);
}
);
vertWidth = 1000;
width = 664;
}
);
note = cid01400;
unicode = 300B;
},
{
glyphname = tortoiseshellbracketleft;
lastChange = "2017-04-16 02:34:18 +0000";
layers = (
{
layerId = "89F69A78-1DC7-4EE2-AA22-FFB772252EBC";
paths = (
{
closed = 1;
nodes = (
"415 -98 LINE",
"448 -46 LINE",
"270 68 LINE",
"270 692 LINE",
"448 806 LINE",
"415 858 LINE",
"200 718 LINE",
"200 42 LINE"
);
}
);
vertWidth = 1000;
width = 478;
}
);
note = cid01409;
unicode = 3014;
},
{
glyphname = tortoiseshellbracketright;
lastChange = "2017-04-16 02:34:30 +0000";
layers = (
{
layerId = "89F69A78-1DC7-4EE2-AA22-FFB772252EBC";
paths = (
{
closed = 1;
nodes = (
"279 42 LINE",
"279 718 LINE",
"63 858 LINE",
"30 806 LINE",
"208 692 LINE",
"208 68 LINE",
"30 -46 LINE",
"63 -98 LINE"
);
}
);
vertWidth = 1000;
width = 479;
}
);
note = cid01410;
unicode = 3015;
},
{
glyphname = whitecornerbracketleft;
lastChange = "2017-04-16 02:34:18 +0000";
layers = (
{
layerId = "89F69A78-1DC7-4EE2-AA22-FFB772252EBC";
paths = (
{
closed = 1;
nodes = (
"567 690 LINE",
"567 846 LINE",
"200 846 LINE",
"200 183 LINE",
"371 183 LINE",
"371 690 LINE"
);
},
{
closed = 1;
nodes = (
"534 813 LINE",
"534 723 LINE",
"338 723 LINE",
"338 216 LINE",
"233 216 LINE",
"233 813 LINE"
);
}
);
vertWidth = 1000;
width = 597;
}
);
note = cid01403;
unicode = 300E;
},
{
glyphname = whitecornerbracketright;
lastChange = "2017-04-16 02:34:30 +0000";
layers = (
{
layerId = "89F69A78-1DC7-4EE2-AA22-FFB772252EBC";
paths = (
{
closed = 1;
nodes = (
"30 70 LINE",
"30 -86 LINE",
"397 -86 LINE",
"397 577 LINE",
"226 577 LINE",
"226 70 LINE"
);
},
{
closed = 1;
nodes = (
"63 -53 LINE",
"63 37 LINE",
"259 37 LINE",
"259 544 LINE",
"364 544 LINE",
"364 -53 LINE"
);
}
);
vertWidth = 1000;
width = 597;
}
);
note = cid01404;
unicode = 300F;
},
{
glyphname = whitelenticularbracketleft;
lastChange = "2017-04-16 02:34:18 +0000";
layers = (
{
layerId = "89F69A78-1DC7-4EE2-AA22-FFB772252EBC";
paths = (
{
closed = 1;
nodes = (
"543 -69 LINE",
"385 3 OFFCURVE",
"280 158 OFFCURVE",
"280 380 CURVE SMOOTH",
"280 602 OFFCURVE",
"385 757 OFFCURVE",
"543 829 CURVE",
"543 846 LINE",
"200 846 LINE",
"200 -86 LINE",
"543 -86 LINE"
);
},
{
closed = 1;
nodes = (
"223 -62 LINE",
"223 822 LINE",
"480 822 LINE",
"385 764 OFFCURVE",
"256 632 OFFCURVE",
"256 380 CURVE SMOOTH",
"256 128 OFFCURVE",
"385 -4 OFFCURVE",
"480 -62 CURVE"
);
}
);
vertWidth = 1000;
width = 573;
}
);
note = cid01411;
unicode = 3016;
},
{
glyphname = whitelenticularbracketright;
lastChange = "2017-04-16 02:34:30 +0000";
layers = (
{
layerId = "89F69A78-1DC7-4EE2-AA22-FFB772252EBC";
paths = (
{
closed = 1;
nodes = (
"30 -86 LINE",
"373 -86 LINE",
"373 846 LINE",
"30 846 LINE",
"30 829 LINE",
"188 757 OFFCURVE",
"293 602 OFFCURVE",
"293 380 CURVE SMOOTH",
"293 158 OFFCURVE",
"188 3 OFFCURVE",
"30 -69 CURVE"
);
},
{
closed = 1;
nodes = (
"93 -62 LINE",
"188 -4 OFFCURVE",
"317 128 OFFCURVE",
"317 380 CURVE SMOOTH",
"317 632 OFFCURVE",
"188 764 OFFCURVE",
"93 822 CURVE",
"350 822 LINE",
"350 -62 LINE"
);
}
);
vertWidth = 1000;
width = 573;
}
);
note = cid01412;
unicode = 3017;
},
{
glyphname = bracketleft.full;
lastChange = "2017-04-16 02:34:18 +0000";
layers = (
{
layerId = "89F69A78-1DC7-4EE2-AA22-FFB772252EBC";
paths = (
{
closed = 1;
nodes = (
"200 -86 LINE",
"454 -86 LINE",
"454 -33 LINE",
"269 -33 LINE",
"269 793 LINE",
"454 793 LINE",
"454 846 LINE",
"200 846 LINE"
);
}
);
vertWidth = 1000;
width = 484;
}
);
note = cid59050;
unicode = FF3B;
},
{
glyphname = bracketright.full;
lastChange = "2017-04-16 02:34:30 +0000";
layers = (
{
layerId = "89F69A78-1DC7-4EE2-AA22-FFB772252EBC";
paths = (
{
closed = 1;
nodes = (
"284 846 LINE",
"30 846 LINE",
"30 793 LINE",
"215 793 LINE",
"215 -33 LINE",
"30 -33 LINE",
"30 -86 LINE",
"284 -86 LINE"
);
}
);
vertWidth = 1000;
width = 484;
}
);
note = cid59052;
unicode = FF3D;
},
{
glyphname = parenleft.full;
lastChange = "2017-04-16 02:34:18 +0000";
layers = (
{
layerId = "89F69A78-1DC7-4EE2-AA22-FFB772252EBC";
paths = (
{
closed = 1;
nodes = (
"459 -65 LINE",
"344 54 OFFCURVE",
"273 202 OFFCURVE",
"273 380 CURVE SMOOTH",
"273 558 OFFCURVE",
"344 706 OFFCURVE",
"459 825 CURVE",
"399 856 LINE",
"279 734 OFFCURVE",
"200 575 OFFCURVE",
"200 380 CURVE SMOOTH",
"200 185 OFFCURVE",
"279 26 OFFCURVE",
"399 -96 CURVE"
);
}
);
vertWidth = 1000;
width = 489;
}
);
note = cid58999;
unicode = FF08;
},
{
glyphname = parenright.full;
lastChange = "2017-04-16 02:34:30 +0000";
layers = (
{
layerId = "89F69A78-1DC7-4EE2-AA22-FFB772252EBC";
paths = (
{
closed = 1;
nodes = (
"30 825 LINE",
"145 706 OFFCURVE",
"216 558 OFFCURVE",
"216 380 CURVE SMOOTH",
"216 202 OFFCURVE",
"145 54 OFFCURVE",
"30 -65 CURVE",
"90 -96 LINE",
"210 26 OFFCURVE",
"289 185 OFFCURVE",
"289 380 CURVE SMOOTH",
"289 575 OFFCURVE",
"210 734 OFFCURVE",
"90 856 CURVE"
);
}
